<svg xmlns="http://www.w3.org/2000/svg" version="1.1" xmlns:xlink="http://www.w3.org/1999/xlink" xmlns:svgjs="http://svgjs.com/svgjs" width="1440" height="560" preserveAspectRatio="none" viewBox="0 0 1440 560"><g mask="url(&quot;#SvgjsMask3141&quot;)" fill="none"><rect width="1440" height="560" x="0" y="0" fill="url(#SvgjsLinearGradient3142)"></rect><path d="M207.95951082489552 601.9777846867022L292.50901688856226 558.8976596050804 164.8793857432738 517.4282786230355z" fill="rgba(64, 102, 186, 0.61)" class="triangle-float2"></path><path d="M1387.694,332.22C1432.474,332.994,1478.443,321.633,1503.668,284.625C1532.215,242.745,1540.683,187.846,1516.442,143.335C1491.265,97.105,1440.247,68.63,1387.694,71.679C1339.394,74.481,1304.863,114.03,1282.458,156.91C1261.961,196.139,1255.682,242.784,1278.462,280.733C1300.667,317.723,1344.557,331.474,1387.694,332.22" fill="rgba(64, 102, 186, 0.61)" class="triangle-float1"></path><path d="M721.247,468.585C739.175,467.954,757.837,463.478,767.097,448.114C776.609,432.331,774.515,412.148,764.634,396.593C755.429,382.101,738.409,376.394,721.247,375.934C703.04,375.446,683.927,379.126,673.633,394.152C662.013,411.114,658.365,434.231,669.445,451.551C679.943,467.962,701.777,469.27,721.247,468.585" fill="rgba(64, 102, 186, 0.61)" class="triangle-float1"></path><path d="M465.5961239625464 84.09087815022207L550.8689744724373 82.60243500795774 464.1076808202821-1.1819723596688618z" fill="rgba(64, 102, 186, 0.61)" class="triangle-float1"></path><path d="M1173.5213952145539 512.5996306644522L1117.2071681382633 391.8333809762006 996.4409184500118 448.147608052491 1052.7551455263022 568.9138577407426z" fill="rgba(64, 102, 186, 0.61)" class="triangle-float1"></path><path d="M1285.594,424.56C1332.258,425.185,1379.918,411.271,1405.198,372.043C1432.522,329.645,1434.157,275.429,1410.365,230.953C1385.158,183.831,1339.031,147.937,1285.594,148.454C1232.893,148.964,1189.177,186.531,1164.939,233.33C1142.637,276.391,1145.538,327.899,1171.415,368.912C1195.63,407.29,1240.219,423.952,1285.594,424.56" fill="rgba(64, 102, 186, 0.61)" class="triangle-float2"></path><path d="M54.817,255.67C101.939,256.432,152.087,244.778,176.346,204.373C201.168,163.031,193.927,109.382,166.437,69.764C142.25,34.908,97.225,28.007,54.817,29.231C15.087,30.378,-24.035,42.891,-46.176,75.9C-71.137,113.115,-82.042,161.484,-60.094,200.552C-37.793,240.249,9.291,254.934,54.817,255.67" fill="rgba(64, 102, 186, 0.61)" class="triangle-float1"></path><path d="M147.627,203.43C169.714,201.804,186.498,185.672,197.291,166.333C207.756,147.581,212.884,124.775,201.781,106.394C190.964,88.487,168.531,84.94,147.627,84.117C124.582,83.21,98.879,82.998,85.547,101.817C70.485,123.077,69.858,152.483,83.442,174.717C96.539,196.154,122.574,205.275,147.627,203.43" fill="rgba(64, 102, 186, 0.61)" class="triangle-float1"></path><path d="M1075.391063095279 290.9250175926693L1195.9815897976384 271.94314508531727 1130.282482489132 187.85212244323913z" fill="rgba(64, 102, 186, 0.61)" class="triangle-float1"></path><path d="M1087.4149633358702 27.288846122844866L998.6909119206175-64.76299899651434 966.0152785151296 42.11418208845389z" fill="rgba(64, 102, 186, 0.61)" class="triangle-float3"></path><path d="M760.3711058521715 328.3293996545242L843.6679891480112 395.78188576240314 827.8235919600504 245.03251635868443z" fill="rgba(64, 102, 186, 0.61)" class="triangle-float2"></path><path d="M888.1376424555883 459.62430915066983L957.4003465382478 447.41142566407063 904.4496692670192 349.62381128338086z" fill="rgba(64, 102, 186, 0.61)" class="triangle-float1"></path><path d="M373.9223191320368 263.82563457367155L553.3776720304952 229.12050150733208 450.6738356266827 106.72283549988057z" fill="rgba(64, 102, 186, 0.61)" class="triangle-float3"></path></g><defs><mask id="SvgjsMask3141"><rect width="1440" height="560" fill="#ffffff"></rect></mask><linearGradient x1="100%" y1="50%" x2="0%" y2="50%" gradientUnits="userSpaceOnUse" id="SvgjsLinearGradient3142"><stop stop-color="rgba(223, 127, 234, 1)" offset="0.03"></stop><stop stop-color="rgba(108, 53, 114, 1)" offset="1"></stop></linearGradient><style>
            @keyframes float1 {
                0%{transform: translate(0, 0)}
                50%{transform: translate(-10px, 0)}
                100%{transform: translate(0, 0)}
            }

            .triangle-float1 {
                animation: float1 5s infinite;
            }

            @keyframes float2 {
                0%{transform: translate(0, 0)}
                50%{transform: translate(-5px, -5px)}
                100%{transform: translate(0, 0)}
            }

            .triangle-float2 {
                animation: float2 4s infinite;
            }

            @keyframes float3 {
                0%{transform: translate(0, 0)}
                50%{transform: translate(0, -10px)}
                100%{transform: translate(0, 0)}
            }

            .triangle-float3 {
                animation: float3 6s infinite;
            }
        </style></defs></svg>